Coordinates
version=1
nRows=4
nColumns=63
inDegrees=yes

Units are S.I. units (second, meters, Newtons, ...)
If the header above contains a line with 'inDegrees', this indicates whether rotational values are in degrees (yes) or radians (no).

endheader
time	pelvis_tilt	pelvis_list	pelvis_rotation	pelvis_tx	pelvis_ty	pelvis_tz	hip_flexion_r	hip_adduction_r	hip_rotation_r	knee_angle_r	knee_angle_r_beta	ankle_angle_r	subtalar_angle_r	mtp_angle_r	hip_flexion_l	hip_adduction_l	hip_rotation_l	knee_angle_l	knee_angle_l_beta	ankle_angle_l	subtalar_angle_l	mtp_angle_l	L5_S1_Flex_Ext	L5_S1_Lat_Bending	L5_S1_axial_rotation	L4_L5_Flex_Ext	L4_L5_Lat_Bending	L4_L5_axial_rotation	L3_L4_Flex_Ext	L3_L4_Lat_Bending	L3_L4_axial_rotation	L2_L3_Flex_Ext	L2_L3_Lat_Bending	L2_L3_axial_rotation	L1_L2_Flex_Ext	L1_L2_Lat_Bending	L1_L2_axial_rotation	L1_T12_Flex_Ext	L1_T12_Lat_Bending	L1_T12_axial_rotation	Abs_r3	Abs_r2	Abs_r1	Abs_t1	Abs_t2	neck_flexion	neck_bending	neck_rotation	arm_flex_r	arm_add_r	arm_rot_r	elbow_flex_r	pro_sup_r	wrist_flex_r	wrist_dev_r	arm_flex_l	arm_add_l	arm_rot_l	elbow_flex_l	pro_sup_l	wrist_flex_l	wrist_dev_l
      6.18644068	     -1.98331342	      5.37149003	     93.41968310	      0.21513509	      0.50575419	      0.97850443	     -7.54049616	      0.50162355	      8.30241611	      1.49040319	      0.02601244	     27.20056571	     -1.97332865	      0.00000000	     -2.96955484	      0.15069711	      2.63023676	     10.11352841	      0.17651437	     24.73666831	    -10.56071894	      0.00000000	     -0.52428583	     -0.23634583	      0.82926483	     -0.97365122	     -0.31433995	      0.88109388	     -0.86134919	     -0.57465125	      0.88109388	     -0.59920628	     -0.57465125	      0.72560673	     -0.48685182	     -0.48195641	      0.67377767	     -0.29957692	     -0.36609969	      0.62194862	     -3.74492127	     -2.67359127	      4.61212221	      0.00000000	      0.00000000	      1.07349492	      1.76796053	     -0.87488376	     62.59217814	    -15.47194043	     -3.55177915	    149.79098680	     82.67323463	    -12.33647023	    -12.82876884	     61.80273145	    -23.97879271	      5.09914121	    149.66444121	     89.11441507	    -22.68572007	    -13.14126632
      6.20338983	     -1.86780131	      5.31708714	     93.09957697	      0.21452588	      0.50504349	      0.97532247	     -7.73312525	      0.51302130	      8.66852106	      1.29165748	      0.02254368	     27.43903694	     -1.69032982	      0.00000000	     -3.41808550	      0.15227816	      3.09024371	      9.49811245	      0.16577333	     24.69319295	    -11.34431840	      0.00000000	     -0.44325116	     -0.20366506	      0.88959845	     -0.82316174	     -0.27087452	      0.94519835	     -0.72821734	     -0.49519122	      0.94519835	     -0.50659175	     -0.49519122	      0.77839864	     -0.41160303	     -0.41531378	      0.72279874	     -0.25327371	     -0.31547717	      0.66719883	     -3.16609873	     -2.30389984	      4.94767968	      0.00000000	      0.00000000	      2.71707570	      1.41175424	     -0.53214062	     61.24661867	    -16.06298230	     -2.61835462	    149.76681793	     87.05750897	    -23.29956937	    -13.98874467	     58.36310190	    -24.73870062	      5.43419758	    149.44033884	     89.13801301	    -23.01374823	     -5.75834262
      6.22033898	     -1.61273566	      5.15947573	     92.77081932	      0.21388673	      0.50427324	      0.97275416	     -7.70896007	      0.65200126	      8.48922940	      1.22650213	      0.02140650	     27.78319526	     -0.67806109	      0.00000000	     -3.64743615	     -0.01500868	      3.24175264	      9.02273692	      0.15747647	     24.80262582	    -11.73415568	      0.00000000	     -0.34843107	     -0.14992688	      0.89735512	     -0.64707134	     -0.19940275	      0.95343982	     -0.57243741	     -0.36453221	      0.95343982	     -0.39822187	     -0.36453221	      0.78518573	     -0.32355309	     -0.30573089	      0.72910104	     -0.19909351	     -0.23223673	      0.67301634	     -2.48880830	     -1.69600281	      4.99081998	      0.00000000	      0.00000000	      3.94438974	      0.73052484	      0.27019481	     59.46168727	    -16.82071450	     -2.14839249	    149.70076965	     88.12705700	    -30.14562047	    -15.20624643	     55.07568784	    -25.42334750	      5.08060956	    148.86204045	     89.12034921	    -22.28322121	     -1.83990876
      6.23728814	     -1.48817524	      5.29557853	     92.50381733	      0.21356878	      0.50388543	      0.97095149	     -7.99178660	      0.69181640	      8.59699825	      1.10785453	      0.01933571	     27.91429717	     -0.27592901	      0.00000000	     -4.11002185	     -0.11778961	      2.99855988	      8.63509872	      0.15071090	     25.08212135	    -11.40575422	      0.00000000	     -0.30715391	     -0.12496680	      0.84258031	     -0.57041553	     -0.16620585	      0.89524158	     -0.50462316	     -0.30384428	      0.89524158	     -0.35104621	     -0.30384428	      0.73725777	     -0.28522312	     -0.25483230	      0.68459650	     -0.17550774	     -0.19357357	      0.63193523	     -2.19396967	     -1.41364944	      4.68617893	      0.00000000	      0.00000000	      4.65472269	      0.56162544	      0.99078765	     56.42643707	    -17.32954447	     -3.88588678	    149.67370261	     88.14126793	    -30.82824028	    -15.52666788	     52.39333026	    -26.24790836	      4.95034293	    147.94782875	     89.01286461	    -22.64088951	     -1.51591144
